<?xml version="1.0" encoding="UTF-8"?>
<svg width="752pt" height="752pt" version="1.1" viewBox="0 0 752 752" xmlns="http://www.w3.org/2000/svg">
 <path d="m423.06 237.88 65.02 64.922v42.82h21.508v129.54h-21.508v12.926c0.054688 6.8906-2.6484 13.516-7.5 18.406-4.8555 4.8906-11.461 7.6406-18.348 7.6406h-172.46c-6.8555 0-13.43-2.7227-18.277-7.5703-4.8477-4.8477-7.5703-11.422-7.5703-18.277v-13.125h-21.508v-129.34h21.508v-81.891c-0.054687-6.8906 2.6445-13.516 7.5-18.406 4.8516-4.8906 11.457-7.6406 18.348-7.6406zm39.465 236.79h-172.76v12.926h172.46zm-122.73-97.086c-3.3359 0.16406-6.6445 0.69141-9.8672 1.582-4.0586 1.3477-7.7891 3.5312-10.953 6.4102-4.6602 4.707-7.7617 10.738-8.8789 17.266-1.0859 6.1719-0.78125 12.512 0.89062 18.551 0.62109 2.1914 1.4805 4.3086 2.5625 6.3125 1.0703 1.8125 2.293 3.5273 3.6523 5.1328 2.7695 3.0117 6.1289 5.4297 9.8672 7.1016 4.0664 1.5469 8.375 2.3828 12.727 2.4688 3.8008-0.027344 7.582-0.55859 11.246-1.5781 3.5703-0.91016 6.9258-2.5195 9.8672-4.7383v-30.484h-20.816v11.641h5.625v12.629h-0.003906c-1.6992 0.25-3.4297 0.25-5.1289 0-4.582 0.050781-8.9375-1.9805-11.84-5.5234-1.6016-2.0703-2.7461-4.4609-3.3555-7.0078-1.1836-4.7266-1.1836-9.6758 0-14.402 0.70703-2.6289 1.9492-5.0781 3.6523-7.2031 1.6445-1.8047 3.6211-3.2773 5.8203-4.3398 2.3008-0.89844 4.7344-1.3984 7.2031-1.4805 5.2227-0.019531 10.406 0.91406 15.293 2.7617v-12.137c-2.793-0.97656-5.6641-1.7031-8.5859-2.168-3.0703-0.49219-6.168-0.78906-9.2734-0.89062zm43.707 1.5781-15.492 0.003906v61.664h15.488zm48.344 0-41.34 0.003906v61.664h15.098v-23.285h22.496l-0.003906-11.938h-22.492v-14.012h25.852l-0.003906-12.43zm-31.273-115.23h-110.8v81.891h172.46v-22.004h-61.664zm25.852 14.012v19.734h19.734z" fill="#fff"/>
</svg>
